# xmcd CD database file generated by Grip 3.2.0
# 
# Track frame offsets:
#       183
#       19158
#       39313
#       56565
#       81268
#       96140
#       117698
#       135595
#       151813
#       163243
#       188093
#       209545
#       226340
#       239630
# 
# Disc length: 3394 seconds
# 
# Revision: 2
# Processed by: cddbd v1.5.1PL2 Copyright (c) Steve Scherf et al.
# Submitted via: Grip 3.2.0
# 
DISCID=be0d400e
DTITLE=Żanna Biczewska - Rosyjskie Ballady
DYEAR=1994
DGENRE=Folk
TTITLE0=Porucznik Galicyn
TTITLE1=Nostalgiczeskaja
TTITLE2=Proszczalnaja
TTITLE3=Zakatiłaś zorka za lies
TTITLE4=Klassiczeskije rozy
TTITLE5=Nie nada grustit gospoda officery
TTITLE6=Wsio  tiepier protiw nas
TTITLE7=Piered puszkami kak na parad
TTITLE8=Tolko szto opiat po polam
TTITLE9=Liubo bratcy liubo
TTITLE10=Po dorogie w Zagorsk
TTITLE11=Rasskaz  ubitowo
TTITLE12=Walc Junkierow
TTITLE13=To szto  ja dołżen skazać
EXTD=
EXTT0=
EXTT1=
EXTT2=
EXTT3=
EXTT4=
EXTT5=
EXTT6=
EXTT7=
EXTT8=
EXTT9=
EXTT10=
EXTT11=
EXTT12=
EXTT13=
PLAYORDER=
